# xmcd
#
# Track frame offsets:
#	150
#	20218
#	50253
#	68424
#	87581
#	110549
#	138987
#	153250
#
# Disc length: 2234 seconds
# Revision: 0
# Processed by: cddbd v1.5.2PL0 Copyright (c) Steve Scherf et al.
# Submitted via: dBpowerAMP V12.0
#
DISCID=6408b808
DTITLE=Poor Man's Whiskey - Goodbye California
DYEAR=2011
DGENRE=Country
TTITLE0=Goodbye California
TTITLE1=Humboldt Hoedown
TTITLE2=Crazy Joe
TTITLE3=Sierra Girl
TTITLE4=Barfly
TTITLE5=Angeline
TTITLE6=Ramblin'
TTITLE7=Jesus Was a Hippy
EXTD=
EXTT0=
EXTT1=
EXTT2=
EXTT3=
EXTT4=
EXTT5=
EXTT6=
EXTT7=
PLAYORDER=
